<svg width="50" height="50" viewBox="0 0 50 50" xmlns="http://www.w3.org/2000/svg" fill="none"><path d="M25 40.002h-18.942c-5.363-6.767-6.707-15.882-3.525-23.908l9.275 16.058.2.35.008-.008c2.672 4.646 7.624 7.509 12.983 7.508zM37.992 32.503l-.158.275-9.308 16.133-.008.008c-1.165.168-2.34.251-3.517.25-7.385.009-14.367-3.369-18.942-9.167h18.942c5.36.001 10.311-2.863 12.983-7.508l.008.008zM47.467 33.912c-3.179 8.026-10.401 13.744-18.942 15l9.308-16.133.158-.275-.008-.008c2.689-4.632 2.689-10.351 0-14.983l.008-.008 9.475 16.408zM49.167 25.004c.005 3.051-.572 6.074-1.7 8.908l-9.475-16.408-.008.008c-2.672-4.646-7.624-7.509-12.983-7.508h18.942c3.392 4.263 5.234 9.552 5.225 15zM43.942 10.003h-18.942c-5.36-.001-10.311 2.863-12.983 7.508l-.008-.008 9.467-16.408.008-.008c1.165-.168 2.34-.251 3.517-.25 7.385-.009 14.367 3.369 18.942 9.167zM12.017 17.511c-2.689 4.633-2.689 10.351 0 14.983l-.008.008-.2-.35-9.275-16.058c3.18-8.026 10.401-13.744 18.942-15l-9.467 16.408.008.008z" fill="#fff"/><path d="M40 25.003c.003 6.79-4.556 12.734-11.115 14.49-6.559 1.756-13.479-1.115-16.868-6.998-2.715-4.641-2.737-10.381-.056-15.042 2.68-4.661 7.652-7.53 13.029-7.518 5.377.012 10.335 2.903 12.995 7.576 1.324 2.275 2.02 4.86 2.017 7.492z" fill="#C0DEFF"/><path d="M37.983 17.512c-2.672-4.646-7.624-7.509-12.983-7.508-.422 0-.833.023-1.25.057 7.768.652 13.741 7.147 13.741 14.942 0 7.796-5.973 14.291-13.741 14.943.417.034.828.057 1.25.057 5.359.006 10.313-2.852 12.993-7.493 2.679-4.641 2.676-10.36-.01-14.999z" fill="#5894D4" fill-opacity=".48"/><path d="M47.467 33.912c-3.179 8.026-10.401 13.744-18.942 15l.508-.883c8.224-2.638 14.418-9.46 16.25-17.9l2.183 3.783zM49.167 25.004c.005 3.051-.572 6.074-1.7 8.908l-2.183-3.783c.37-1.683.554-3.402.55-5.125.009-5.448-1.833-10.737-5.225-15h3.333c3.392 4.263 5.234 9.552 5.225 15zM43.942 10.003h-3.333c-4.221-5.348-10.51-8.657-17.308-9.108.567-.042 1.133-.058 1.7-.058 7.385-.009 14.366 3.369 18.942 9.167z" fill="#5894D4" fill-opacity=".2"/><path d="M17.5 30.836c1.381 0 2.5-1.119 2.5-2.5s-1.119-2.5-2.5-2.5-2.5 1.119-2.5 2.5 1.119 2.5 2.5 2.5zM32.5 30.836c1.381 0 2.5-1.119 2.5-2.5s-1.119-2.5-2.5-2.5-2.5 1.119-2.5 2.5 1.119 2.5 2.5 2.5zM25 24.17c1.381 0 2.5-1.119 2.5-2.5s-1.119-2.5-2.5-2.5-2.5 1.119-2.5 2.5 1.119 2.5 2.5 2.5zM25 49.169c.38 0 .754-.023 1.131-.04-12.376-.705-22.212-10.66-22.768-23.044-.556-12.384 8.349-23.18 20.612-24.991l.008-.008c.602-.083 1.213-.149 1.833-.191h-.017l.553-.019c-.448-.025-.899-.04-1.353-.04-.567 0-1.133.017-1.7.058h.012c-.616.042-1.227.103-1.833.191l-.008.008c-12.53 1.844-21.511 13.048-20.583 25.678.927 12.631 11.448 22.403 24.113 22.397zM9.929 7.196l-1.078-1.272c1.756-1.49 3.709-2.731 5.803-3.687l.69 1.516c-1.955.894-3.777 2.052-5.416 3.443z" fill="#fff"/><path d="M12.103 5.419c-.46.002-.835-.369-.837-.83-.002-.46.369-.835.83-.837h.008c.46 0 .833.373.833.833 0 .46-.373.833-.833.833zM25 0c-3.569-.008-7.098.754-10.345 2.234-.278.119-.469.379-.501.679-.031.301.102.595.35.768.247.174.569.2.841.069 1.447-.658 2.959-1.165 4.51-1.513l-8.568 14.845.017.009c-1.399 2.4-2.136 5.129-2.137 7.907 0 .337.03.667.051 1l-5.75-9.962c.118-.286.235-.572.364-.855.726-1.525 1.6-2.975 2.61-4.328 1.039-1.332 2.207-2.559 3.487-3.662.344-.292.394-.804.112-1.157-.141-.176-.346-.287-.57-.309-.224-.022-.447.048-.619.194-1.372 1.18-2.623 2.494-3.734 3.922-1.084 1.45-2.022 3.003-2.8 4.637-.75 1.648-1.331 3.368-1.734 5.133-.37 1.772-.565 3.575-.583 5.385 0 13.807 11.193 25 25 25s25-11.193 25-25-11.193-25-25-25zm0 1.667c6.504-.002 12.712 2.718 17.119 7.5h-17.119c-3.114-.003-6.16.919-8.75 2.647l5.745-9.949c.996-.13 2-.196 3.005-.198zm0 9.167c7.824 0 14.167 6.343 14.167 14.167s-6.343 14.167-14.167 14.167-14.167-6.343-14.167-14.167c.009-7.82 6.346-14.158 14.167-14.167zm-22.786 9.139c.147-.632.323-1.256.515-1.876l8.354 14.468.2.35c1.57 2.693 3.896 4.867 6.688 6.252h-11.495c-3.123-4.062-4.814-9.043-4.81-14.167.018-1.69.202-3.374.548-5.027zm5.667 20.861h17.119c3.114.003 6.16-.919 8.75-2.648l-5.743 9.948c-7.497.991-15.007-1.733-20.126-7.3zm22.269 6.917l8.407-14.56.157-.275c1.393-2.405 2.124-5.136 2.119-7.915 0-.337-.03-.667-.051-1l5.756 9.968c-2.919 6.969-9.022 12.101-16.388 13.782zm17.134-15.824l-8.571-14.842-.017.009c-1.562-2.694-3.88-4.87-6.667-6.259h11.493c4.603 6.004 6.005 13.868 3.761 21.093zM16.667 31.552v.952c0 .46.373.833.833.833.46 0 .833-.373.833-.833v-.952c1.47-.374 2.499-1.698 2.499-3.215s-1.029-2.841-2.499-3.215v-7.618c0-.46-.373-.833-.833-.833-.46 0-.833.373-.833.833v7.618c-1.47.374-2.499 1.698-2.499 3.215s1.029 2.841 2.499 3.215zm.833-4.882c.921 0 1.667.746 1.667 1.667s-.746 1.667-1.667 1.667c-.92 0-1.667-.746-1.667-1.667s.746-1.667 1.667-1.667zM31.667 31.552v.952c0 .46.373.833.833.833.46 0 .833-.373.833-.833v-.952c1.47-.374 2.499-1.698 2.499-3.215s-1.029-2.841-2.499-3.215v-7.618c0-.46-.373-.833-.833-.833-.46 0-.833.373-.833.833v7.618c-1.47.374-2.499 1.698-2.499 3.215s1.029 2.841 2.499 3.215zm.833-4.882c.92 0 1.667.746 1.667 1.667s-.746 1.667-1.667 1.667c-.92 0-1.667-.746-1.667-1.667s.746-1.667 1.667-1.667zM24.167 24.885v7.618c0 .46.373.833.833.833.46 0 .833-.373.833-.833v-7.618c1.47-.374 2.499-1.698 2.499-3.215s-1.029-2.841-2.499-3.215v-.952c0-.46-.373-.833-.833-.833-.46 0-.833.373-.833.833v.952c-1.47.374-2.499 1.698-2.499 3.215s1.029 2.841 2.499 3.215zm.833-4.882c.921 0 1.667.746 1.667 1.667 0 .92-.746 1.667-1.667 1.667-.92 0-1.667-.746-1.667-1.667 0-.92.746-1.667 1.667-1.667z" fill="#5894D4"/></svg>